<svg width="20" height="20" viewBox="0 0 20 20" fill="none" xmlns="http://www.w3.org/2000/svg">
<path d="M18.3254 7.29448L18.6362 6.98364C18.9009 6.71886 18.9009 6.28956 18.6362 6.02485C18.3713 5.76014 17.9422 5.76014 17.6774 6.02485L17.3589 6.34343L16.7471 3.89636C16.5275 3.01832 15.6465 2.33051 14.7415 2.33051H5.25838C4.3534 2.33051 3.47246 3.01832 3.25286 3.89643L2.64114 6.34343L2.32263 6.02485C2.05778 5.76014 1.62862 5.76014 1.36384 6.02485C1.09906 6.28963 1.09906 6.71892 1.36384 6.98364L1.67461 7.29448C0.683906 7.78013 0 8.79886 0 9.97455V12.3559C0 13.317 0.457306 14.1727 1.16519 14.7187V15.9068C1.16519 16.8788 1.95589 17.6695 2.92795 17.6695H4.25428C5.22626 17.6695 6.01697 16.8788 6.01697 15.9068V15.339H13.983V15.9068C13.983 16.8788 14.7737 17.6695 15.7457 17.6695H17.072C18.044 17.6695 18.8347 16.8788 18.8347 15.9068V14.7188C19.5426 14.1729 20 13.3171 20 12.3559V9.97455C20 8.79886 19.3161 7.78013 18.3254 7.29448ZM3.92923 6.78148L4.56828 4.22532C4.63751 3.94828 4.97293 3.6864 5.25838 3.6864H14.7415C15.0269 3.6864 15.3624 3.94828 15.4316 4.22532L16.0707 6.78155C16.0884 6.85246 16.0848 6.9128 16.0612 6.9431C16.0374 6.9734 15.9797 6.99152 15.9067 6.99152H4.09313C4.02013 6.99152 3.96242 6.9734 3.93865 6.9431C3.91508 6.9128 3.91158 6.85246 3.92923 6.78148ZM1.35596 9.97455C1.35596 9.07744 2.08593 8.34747 2.98303 8.34747H17.017C17.9141 8.34747 18.644 9.07744 18.644 9.97455V12.3559C18.644 13.2531 17.9141 13.983 17.017 13.983H2.98303C2.08593 13.983 1.35596 13.2531 1.35596 12.3559V9.97455V9.97455ZM4.66101 15.9068C4.66101 16.1272 4.47468 16.3135 4.25428 16.3135H2.92788C2.70741 16.3135 2.52108 16.1272 2.52108 15.9068V15.3031C2.67172 15.3266 2.82586 15.339 2.98296 15.339H4.66094V15.9068H4.66101ZM17.4788 15.9068C17.4788 16.1272 17.2925 16.3135 17.072 16.3135H15.7457C15.5253 16.3135 15.3389 16.1272 15.3389 15.9068V15.339H17.017C17.1741 15.339 17.3282 15.3265 17.4789 15.3031V15.9068H17.4788Z" fill="white"/>
<path d="M7.66937 11.8433H12.3306C12.705 11.8433 13.0085 11.5397 13.0085 11.1653C13.0085 10.7909 12.7049 10.4874 12.3306 10.4874H7.66937C7.29496 10.4874 6.99146 10.7909 6.99146 11.1653C6.99139 11.5397 7.29496 11.8433 7.66937 11.8433Z" fill="white"/>
<path d="M4.17367 13.0085C5.19003 13.0085 6.0169 12.1816 6.0169 11.1652C6.0169 10.1489 5.19003 9.32208 4.17367 9.32208C3.15731 9.32208 2.33051 10.1489 2.33051 11.1652C2.33044 12.1815 3.15731 13.0085 4.17367 13.0085ZM4.17367 10.6779C4.44236 10.6779 4.66094 10.8966 4.66094 11.1652C4.66094 11.4339 4.44236 11.6525 4.17367 11.6525C3.90505 11.6525 3.6864 11.4339 3.6864 11.1652C3.68633 10.8966 3.90498 10.6779 4.17367 10.6779Z" fill="white"/>
<path d="M15.8263 13.0085C16.8426 13.0085 17.6694 12.1816 17.6694 11.1652C17.6694 10.1489 16.8426 9.32208 15.8263 9.32208C14.8099 9.32208 13.983 10.1489 13.983 11.1652C13.983 12.1815 14.8099 13.0085 15.8263 13.0085ZM15.8263 10.6779C16.0949 10.6779 16.3135 10.8966 16.3135 11.1652C16.3135 11.4339 16.0949 11.6525 15.8263 11.6525C15.5576 11.6525 15.339 11.4339 15.339 11.1652C15.3389 10.8966 15.5575 10.6779 15.8263 10.6779Z" fill="white"/>
</svg>
