<svg width="0" height="0" class="hidden">
  <symbol fill="none" xmlns="http://www.w3.org/2000/svg" viewBox="0 0 32 32" id="Instagram">
    <path d="M8 3C5.239 3 3 5.239 3 8V16C3 18.761 5.239 21 8 21H16C18.761 21 21 18.761 21 16V8C21 5.239 18.761 3 16 3H8ZM18 5C18.552 5 19 5.448 19 6C19 6.552 18.552 7 18 7C17.448 7 17 6.552 17 6C17 5.448 17.448 5 18 5ZM12 7C14.761 7 17 9.239 17 12C17 14.761 14.761 17 12 17C9.239 17 7 14.761 7 12C7 9.239 9.239 7 12 7ZM12 9C11.2044 9 10.4413 9.31607 9.87868 9.87868C9.31607 10.4413 9 11.2044 9 12C9 12.7956 9.31607 13.5587 9.87868 14.1213C10.4413 14.6839 11.2044 15 12 15C12.7956 15 13.5587 14.6839 14.1213 14.1213C14.6839 13.5587 15 12.7956 15 12C15 11.2044 14.6839 10.4413 14.1213 9.87868C13.5587 9.31607 12.7956 9 12 9Z" fill="#888888"></path>
  </symbol>
  <symbol fill="none" xmlns="http://www.w3.org/2000/svg" viewBox="0 0 32 32" id="Linkedin">
    <path d="M19 3H5C3.895 3 3 3.895 3 5V19C3 20.105 3.895 21 5 21H19C20.105 21 21 20.105 21 19V5C21 3.895 20.105 3 19 3ZM9 17H6.477V10H9V17ZM7.694 8.717C6.923 8.717 6.408 8.203 6.408 7.517C6.408 6.831 6.922 6.317 7.779 6.317C8.55 6.317 9.065 6.831 9.065 7.517C9.065 8.203 8.551 8.717 7.694 8.717ZM18 17H15.558V13.174C15.558 12.116 14.907 11.872 14.663 11.872C14.419 11.872 13.605 12.035 13.605 13.174C13.605 13.337 13.605 17 13.605 17H11.082V10H13.605V10.977C13.93 10.407 14.581 10 15.802 10C17.023 10 18 10.977 18 13.174V17Z" fill="#888888"></path>
  </symbol>
  <symbol fill="none" xmlns="http://www.w3.org/2000/svg" viewBox="0 0 32 32" id="Twitter">
    <path d="M19 3H5C3.895 3 3 3.895 3 5V19C3 20.105 3.895 21 5 21H19C20.105 21 21 20.105 21 19V5C21 3.895 20.105 3 19 3ZM17.05 9.514C17.05 9.6 17.05 9.685 17.05 9.857C17.05 13.114 14.564 16.886 10.021 16.886C8.65 16.886 7.364 16.457 6.25 15.772C6.421 15.772 6.679 15.772 6.85 15.772C7.964 15.772 9.079 15.343 9.936 14.743C8.822 14.743 7.965 13.972 7.622 13.029C7.793 13.029 7.965 13.115 8.051 13.115C8.308 13.115 8.48 13.115 8.737 13.029C7.623 12.772 6.766 11.829 6.766 10.629C7.109 10.8 7.452 10.886 7.88 10.972C7.194 10.372 6.766 9.686 6.766 8.829C6.766 8.4 6.852 7.972 7.109 7.629C8.309 9.086 10.109 10.115 12.166 10.2C12.166 10.029 12.08 9.857 12.08 9.6C12.08 8.229 13.194 7.114 14.566 7.114C15.252 7.114 15.937 7.371 16.366 7.885C16.966 7.799 17.48 7.542 17.909 7.285C17.738 7.885 17.309 8.314 16.795 8.656C17.309 8.57 17.738 8.485 18.252 8.227C17.907 8.743 17.479 9.171 17.05 9.514Z" fill="#888888"></path>
  </symbol>
  <symbol fill="none" xmlns="http://www.w3.org/2000/svg" viewBox="0 0 32 32" id="Facebook">
    <path d="M12 2C6.477 2 2 6.477 2 12C2 17.013 5.693 21.153 10.505 21.876V14.65H8.031V12.021H10.505V10.272C10.505 7.376 11.916 6.105 14.323 6.105C15.476 6.105 16.085 6.19 16.374 6.229V8.523H14.732C13.71 8.523 13.353 9.492 13.353 10.584V12.021H16.348L15.942 14.65H13.354V21.897C18.235 21.236 22 17.062 22 12C22 6.477 17.523 2 12 2Z" fill="#888888"></path>
  </symbol>
  <symbol fill="none" xmlns="http://www.w3.org/2000/svg" viewBox="0 0 32 32" id="Telegram">
    <path d="M20.3027 2.98438C20.0138 2.99695 19.7486 3.08006 19.5156 3.17188C19.3004 3.25664 18.5275 3.58148 17.2969 4.09766C16.0662 4.61385 14.4355 5.29824 12.6973 6.0293C9.22084 7.49143 5.31424 9.13613 3.3125 9.97852C3.24376 10.0072 2.96459 10.0926 2.65625 10.3281C2.3472 10.5642 2.00391 11.0765 2.00391 11.6367C2.00391 12.0887 2.22952 12.549 2.50195 12.8125C2.77439 13.076 3.05049 13.1992 3.28125 13.291V13.2891C4.06128 13.5998 6.39069 14.5319 6.94531 14.7539C7.14204 15.3434 7.98659 17.8673 8.1875 18.502H8.18555C8.32756 18.9512 8.46598 19.2439 8.6582 19.4883C8.75432 19.6105 8.86904 19.7212 9.00977 19.8086C9.06376 19.8421 9.12355 19.8682 9.18359 19.8926C9.19196 19.8961 9.20059 19.897 9.20898 19.9004L9.18555 19.8945C9.20296 19.9015 9.21858 19.9119 9.23633 19.918C9.26524 19.9279 9.28529 19.9276 9.32422 19.9356C9.46122 19.9777 9.59798 20.0059 9.72461 20.0059C10.2682 20.0059 10.6016 19.7109 10.6016 19.7109L10.623 19.6953L12.9707 17.709L15.8457 20.3691C15.8982 20.4433 16.3096 21 17.2617 21C17.8298 21 18.279 20.7188 18.5664 20.4238C18.8538 20.1289 19.0328 19.8271 19.1133 19.418L19.1152 19.416C19.1794 19.0858 21.9316 5.26563 21.9316 5.26563L21.9258 5.28907C22.0114 4.90672 22.0367 4.53697 21.9355 4.16016C21.8344 3.78336 21.5613 3.41563 21.2324 3.22266C20.9036 3.02969 20.5917 2.97181 20.3027 2.98438ZM19.9082 5.17383C19.7994 5.71986 17.334 18.1059 17.1816 18.8828L13.0293 15.041L10.2227 17.4141L11 14.375C11 14.375 16.3625 8.94687 16.6855 8.63087C16.9455 8.37787 17 8.28918 17 8.20118C17 8.08418 16.9398 8.00001 16.8008 8.00001C16.6758 8.00001 16.506 8.11979 16.416 8.17579C15.2724 8.88879 10.4013 11.6647 8.00586 13.0273C7.8617 12.9695 5.6974 12.1005 4.53125 11.6348C6.60551 10.7618 10.1612 9.26581 13.4727 7.87305C15.2106 7.14212 16.8408 6.4571 18.0703 5.94141C19.1082 5.5061 19.6495 5.28071 19.9082 5.17383ZM17.1523 19.0254H17.1543C17.1543 19.0256 17.1524 19.031 17.1523 19.0313C17.1536 19.0248 17.1514 19.0305 17.1523 19.0254Z" fill="#888888"></path>
  </symbol>
</svg>